<svg xmlns="http://www.w3.org/2000/svg" width="770" height="67.122" viewBox="0 0 770 67.122">
  <g id="Group_1208" data-name="Group 1208" transform="translate(-927.305 -6.256)">
    <g id="Group_1184" data-name="Group 1184" transform="translate(927.305 6.256)">
      <path id="Path_1018" data-name="Path 1018" d="M959.688,36.181H946.36V28.375a15.361,15.361,0,0,0,9.138-2.247,15.768,15.768,0,0,0,6.17-7.2h8.949V33.866L967.564,46l3.053,10.24V74.455H959.688Z" transform="translate(-946.36 -17.993)" fill="#fff"/>
      <circle id="Ellipse_153" data-name="Ellipse 153" cx="21.781" cy="21.781" r="21.781" transform="translate(25.299 6.744)" fill="#fff"/>
      <g id="Group_1180" data-name="Group 1180" transform="translate(18.483 0)">
        <g id="Group_1179" data-name="Group 1179">
          <path id="Path_1019" data-name="Path 1019" d="M1010.845,47.145h-2.473a23.756,23.756,0,1,1-6.957-16.8,23.672,23.672,0,0,1,6.957,16.8h4.946a28.7,28.7,0,1,0-28.7,28.7,28.7,28.7,0,0,0,28.7-28.7Z" transform="translate(-955.919 -18.446)" fill="#fff"/>
        </g>
      </g>
      <g id="Group_1181" data-name="Group 1181" transform="translate(31.002 12.677)">
        <path id="Path_1020" data-name="Path 1020" d="M970.657,41.373h-.128a4.155,4.155,0,0,1-4.182-3.83,4.088,4.088,0,0,1,3.229-4.256V29.3a8.043,8.043,0,0,0-7.164,8.545,8.132,8.132,0,0,0,8.164,7.475H974.6V41.373Z" transform="translate(-962.393 -20.991)" fill="#0b509e"/>
        <path id="Path_1021" data-name="Path 1021" d="M978.765,35.543v4.175a4.089,4.089,0,0,1-4.088,4.088h0a4.088,4.088,0,0,1-4-3.237H966.69a8.044,8.044,0,0,0,8.421,7.17,8.246,8.246,0,0,0,7.6-8.135V35.543Z" transform="translate(-958.382 -15.161)" fill="#0b509e"/>
        <path id="Path_1022" data-name="Path 1022" d="M982.685,32.183a8.04,8.04,0,0,0-8.419-7.17,8.243,8.243,0,0,0-7.6,8.135v4.061h3.945V33.034a4.088,4.088,0,0,1,8.086-.851Z" transform="translate(-958.403 -25.002)" fill="#0b509e"/>
        <path id="Path_1023" data-name="Path 1023" d="M976.959,29.275h-4.024V33.22h4.072a4.244,4.244,0,0,1,4.182,3.829,4.09,4.09,0,0,1-3.229,4.258v3.987a8.042,8.042,0,0,0,7.162-8.545,8.128,8.128,0,0,0-8.164-7.473Z" transform="translate(-952.551 -21.013)" fill="#0b509e"/>
        <path id="Path_1024" data-name="Path 1024" d="M971.886,44.517h0a2.207,2.207,0,0,1-2.206-2.206V31.768a2.206,2.206,0,0,1,4.413,0V42.31a2.207,2.207,0,0,1-2.206,2.206Z" transform="translate(-955.59 -20.745)" fill="#e0061d"/>
        <path id="Path_1025" data-name="Path 1025" d="M966.954,34.494h0a2.2,2.2,0,0,1,2.206-2.206H979.7a2.206,2.206,0,0,1,0,4.413H969.16a2.206,2.206,0,0,1-2.206-2.206Z" transform="translate(-958.135 -18.2)" fill="#e0061d"/>
      </g>
      <g id="Group_1183" data-name="Group 1183" transform="translate(70.039 37.029)">
        <g id="Group_1182" data-name="Group 1182">
          <path id="Path_1026" data-name="Path 1026" d="M1025.009,43.836c0,.859-.116,1.288-.352,1.288-.139,0-.211-.056-.211-.17a.753.753,0,0,1,.056-.209,4.093,4.093,0,0,0,.056-.938,3.953,3.953,0,0,0-1.373-3.084,4.964,4.964,0,0,0-3.43-1.224q-4.182,0-8.465,5.555-1.253,1.674-5.226,8.415a29.391,29.391,0,0,1-2.346,3.494q-1.189,1.5-1.655,1.5c-.2,0-.294-.091-.294-.273s.224-.4.675-.628q1.2-.6,1.2-2.821,0-.528-.056-1.531-.142-2.462-.141-4.4a17.9,17.9,0,0,1,.592-5.045,9.523,9.523,0,0,1,1.959-3.542c.046-.029.07-.048.07-.058h.042a4.531,4.531,0,0,0-1.069.959,34.646,34.646,0,0,0-4.171,6.5q-1.873,3.463-2.746,4.737a17.374,17.374,0,0,1-2.169,2.549q-3.861,3.779-7.988,3.78a5.115,5.115,0,0,1-3.888-1.576,5.654,5.654,0,0,1-1.493-4.051q0-4.594,4.706-8.1a8.768,8.768,0,0,1,3.274-5.167,8.994,8.994,0,0,1,5.8-2.2,3.19,3.19,0,0,1,2.2.721,2.51,2.51,0,0,1,.81,1.968,5,5,0,0,1-.621,2.162,4.943,4.943,0,0,0-.619,1.7.93.93,0,0,0,.309.715,1.042,1.042,0,0,0,.733.286q1.267,0,2.873-2.361a.2.2,0,0,1,.2-.1c.141,0,.211.058.211.172,0,.228-.276.65-.83,1.259a3.384,3.384,0,0,1-2.409,1.417,1.836,1.836,0,0,1-1.4-.594,2.065,2.065,0,0,1-.557-1.468,4.928,4.928,0,0,1,.605-1.974A5.6,5.6,0,0,0,998.6,39.5a1.292,1.292,0,0,0-.655-1.137,3.069,3.069,0,0,0-1.7-.423,8.389,8.389,0,0,0-5.29,2.077,8.141,8.141,0,0,0-3.121,4.552,9.393,9.393,0,0,1,5.2-1.7,4.027,4.027,0,0,1,4.4,4.393,8.042,8.042,0,0,1-2.529,5.6,7.4,7.4,0,0,1-5.36,2.647,3.1,3.1,0,0,1-2.311-.915,3.161,3.161,0,0,1-.9-2.3,6.674,6.674,0,0,1,1.591-4.022,3.651,3.651,0,0,1-.717-2.191v-.13a11.664,11.664,0,0,0-2.6,3.486,8.988,8.988,0,0,0-1.021,4.03,4.966,4.966,0,0,0,1.253,3.508,4.172,4.172,0,0,0,3.212,1.359,8.836,8.836,0,0,0,5.986-2.535,37.469,37.469,0,0,0,6.41-8.688,30.478,30.478,0,0,1,4.732-6.627q1.241-1.088,1.62-1.089c.1,0,.155.037.155.114a.984.984,0,0,1-.182.273,5.881,5.881,0,0,0-1.114,2.576,51.949,51.949,0,0,0-.31,5.826q-.128,5.511-1.367,7.858V56c0,.01,0,.01-.014,0a47.353,47.353,0,0,0,2.761-4.71q2.422-4.336,3.337-5.747a23.281,23.281,0,0,1,2.183-2.827q3.5-3.837,7.383-3.836a5.476,5.476,0,0,1,3.873,1.394A4.635,4.635,0,0,1,1025.009,43.836Zm-28.229,2.848a3.271,3.271,0,0,0-1.021-2.52,3.737,3.737,0,0,0-2.639-.944,8.339,8.339,0,0,0-5.439,2.276,4.988,4.988,0,0,0-.027.53,3.028,3.028,0,0,0,.578,1.874,10.464,10.464,0,0,1,1.731-1.444,3.233,3.233,0,0,1,1.522-.686.2.2,0,0,1,.213.143c0,.075-.17.189-.509.342a7.337,7.337,0,0,0-2.719,2.005,2.832,2.832,0,0,0,2.311,1.031,5.075,5.075,0,0,0,2.514-.723,6.289,6.289,0,0,0,2.078-1.868.226.226,0,0,1,.168-.116c.151,0,.226.064.226.188q0,.3-.915,1.129a5.855,5.855,0,0,1-4.1,1.733,3.376,3.376,0,0,1-2.548-1.044,6.011,6.011,0,0,0-1.381,3.606,2.969,2.969,0,0,0,.754,2.112,2.526,2.526,0,0,0,1.935.81q2.465,0,4.867-2.779A8.629,8.629,0,0,0,996.781,46.684Z" transform="translate(-982.582 -37.596)" fill="#fff"/>
          <path id="Path_1027" data-name="Path 1027" d="M1008.056,49.117a13.777,13.777,0,0,1-2.056,2.79q-1.705,2.077-2.705,2.077a1.438,1.438,0,0,1-1.133-.509,1.876,1.876,0,0,1-.445-1.28c0-.516-.029-.721-.085-.617a11.041,11.041,0,0,1-1.443,1.682,2.254,2.254,0,0,1-1.514.723,1.627,1.627,0,0,1-1.332-.673,2.632,2.632,0,0,1-.528-1.675q0-2.793,3.846-4.909a6.1,6.1,0,0,1,2.775-.961q.957,0,.957.917c0,.172.046.091.141-.242l.309-.574a3.839,3.839,0,0,0,.818.114,7.874,7.874,0,0,0,1.127-.128l-2.537,4.295a8.083,8.083,0,0,0-1.3,2.891c0,.41.151.617.451.617q.493,0,1.719-1.282a23.272,23.272,0,0,0,2.508-3.214.263.263,0,0,1,.238-.186C1008,48.974,1008.056,49.022,1008.056,49.117ZM1004,46.741q0-.644-.536-.644-1.238,0-3.324,2.554t-2.085,4.13q0,.873.7.874.931,0,3.3-3.237Q1004,47.715,1004,46.741Zm4.987-4.266a3.37,3.37,0,0,1-.972,1.131,4.769,4.769,0,0,1-2.788,1.344,1.86,1.86,0,0,1-1.62-.485,1.623,1.623,0,0,1-.338-1.547c.1-.42.24-.634.41-.644.1,0,.155.095.155.286a1.227,1.227,0,0,0,.472,1.089,1.754,1.754,0,0,0,1.33.286,4.854,4.854,0,0,0,2.79-1.274,1.162,1.162,0,0,1,.408-.3C1008.953,42.359,1009.005,42.4,1008.986,42.475Z" transform="translate(-969.293 -33.229)" fill="#fff"/>
          <path id="Path_1028" data-name="Path 1028" d="M1020.073,47.431c0,.048-.056.128-.168.244l-.605.843q-2.677,3.779-4,3.78a1.451,1.451,0,0,1-1.162-.522,1.98,1.98,0,0,1-.445-1.325,2.754,2.754,0,0,1,.261-1.195,19.821,19.821,0,0,1,1.3-2.084,6.021,6.021,0,0,0,1.183-2.231c0-.354-.16-.53-.48-.53q-1.775,0-6.325,7.771a4.322,4.322,0,0,0-.831-.07,7.663,7.663,0,0,0-1.141.085l2.057-3.322q1.958-3.147,1.959-3.879,0-.586-.423-.586-.719,0-2.465,2.247a39.579,39.579,0,0,0-3.508,5.524,5.133,5.133,0,0,0-.887-.07,7.455,7.455,0,0,0-1.112.085l2.071-3.322q2.083-3.292,2.084-4.093,0-.371-.226-.371-.632,0-2.761,3.034c-.122.162-.238.244-.352.244-.085-.039-.126-.085-.126-.143a10.828,10.828,0,0,1,1.3-1.812q1.3-1.65,2.05-1.653a1.027,1.027,0,0,1,.859.466,1.759,1.759,0,0,1,.338,1.067c0,.543.06.706.184.485q1.352-2.016,2.661-2.019a1.284,1.284,0,0,1,1.044.509,1.951,1.951,0,0,1,.408,1.253c0,.543.093.659.28.344q1.493-2.106,2.889-2.106a1.344,1.344,0,0,1,1.1.553,2.066,2.066,0,0,1,.437,1.323,3.142,3.142,0,0,1-.317,1.346,25,25,0,0,1-1.6,2.576,3.348,3.348,0,0,0-.677,1.56c0,.354.16.532.479.532q1.03,0,3.537-3.566l.437-.615.253-.315a.245.245,0,0,1,.238-.186C1020.008,47.288,1020.073,47.336,1020.073,47.431Z" transform="translate(-963.254 -31.542)" fill="#fff"/>
        </g>
      </g>
    </g>
    <g id="Group_1214" data-name="Group 1214" transform="translate(711.266 -59.612)">
      <path id="Path_1183" data-name="Path 1183" d="M353.765,115.908a23.8,23.8,0,0,1-1.555-2.713,13.421,13.421,0,0,1-.955-2.541,9.406,9.406,0,0,1-.3-2.347,10.619,10.619,0,0,1,.745-3.819,14.428,14.428,0,0,1,2.091-3.683,14.793,14.793,0,0,1,3.073-2.99,16.958,16.958,0,0,1,3.926-2.1A20.751,20.751,0,0,1,365.2,94.6a34.364,34.364,0,0,1,4.786-.323q1.968,0,3.966.148t4.259.366c1.512.148,3.095.293,4.758.434s3.076.212,4.244.212c.674,0,1.013.237,1.013.718a1.662,1.662,0,0,1-.293.828q-.24.753-.471,1.49a10.089,10.089,0,0,1-.44,1.2,1.775,1.775,0,0,1-.582.736,1.523,1.523,0,0,1-.921.268q-4.379,0-6.535-.222l-5.943-.385q-1.289-.074-2.282-.157t-1.989-.154c-.662-.049-1.269-.092-1.82-.123s-1.173-.043-1.86-.043a21.968,21.968,0,0,0-7.031.982,8.918,8.918,0,0,0-4.36,2.916,7.684,7.684,0,0,0-1.475,4.807,10.248,10.248,0,0,0,.536,3.249,22.707,22.707,0,0,0,1.728,3.76Zm14.634.351a12.246,12.246,0,0,0-4.567-.795,12.087,12.087,0,0,0-3.828.591,6.427,6.427,0,0,0-2.87,1.857,4.715,4.715,0,0,0-1.105,3.2,3.146,3.146,0,0,0,.665,1.943,4.35,4.35,0,0,0,1.841,1.37,6.673,6.673,0,0,0,2.63.5,8.708,8.708,0,0,0,3.24-.65,8.265,8.265,0,0,0,2.815-1.832,13.507,13.507,0,0,0,3.036-5.183q1.159-3.3,2.193-6.322a17.761,17.761,0,0,1,3.083-5.528,15.845,15.845,0,0,1,6.063-4.262l.588.588a16.2,16.2,0,0,0-1.414,3.985q-.61,2.531-1.17,5.026a33.094,33.094,0,0,1-1.472,4.819,16.3,16.3,0,0,1-2.458,4.262,14.4,14.4,0,0,1-6.057,4.508,20.206,20.206,0,0,1-7.73,1.527,10.014,10.014,0,0,1-3.674-.616,5.128,5.128,0,0,1-2.4-1.783,4.5,4.5,0,0,1-.832-2.679,6.619,6.619,0,0,1,1.078-3.874,6.11,6.11,0,0,1,2.855-2.23,10.734,10.734,0,0,1,3.911-.687,13.345,13.345,0,0,1,5.943,1.321Z" transform="translate(0 0)" fill="#fff"/>
      <path id="Path_1184" data-name="Path 1184" d="M380.523,116.816a5.086,5.086,0,0,0-.419,1.675c0,.945.579,1.42,1.746,1.42a8.606,8.606,0,0,0,2.772-.647,13.9,13.9,0,0,0,3.138-1.62l.385.462a16.662,16.662,0,0,1-4.253,2.411,12.913,12.913,0,0,1-4.838,1.047,5.636,5.636,0,0,1-4.823-2.137,13.473,13.473,0,0,1-6.793,1.952,5.934,5.934,0,0,1-3.671-1.059,3.94,3.94,0,0,1-1.407-3.375,10.452,10.452,0,0,1,.505-2.935,17.291,17.291,0,0,1,1.417-3.35,16.485,16.485,0,0,1,2.073-2.99,11.036,11.036,0,0,1,2.282-1.962,14.561,14.561,0,0,1,3.11-1.583,9.206,9.206,0,0,1,3.166-.619,4.554,4.554,0,0,1,3.569,1.512l6.9-1.269Zm-4.635-12.278q-2.231,0-4.419,4.9a50.281,50.281,0,0,0-1.851,4.915,13.3,13.3,0,0,0-.745,3.424c0,1.377.554,2.06,1.657,2.06a7.6,7.6,0,0,0,3.424-1.232l-.222-.958a8.7,8.7,0,0,1,.61-2.245l3.7-9.663A2.939,2.939,0,0,0,375.888,104.538Zm-1.814,19.786a2.614,2.614,0,0,1,.6,1.734,2.532,2.532,0,0,1-.6,1.709,2.162,2.162,0,0,1-1.74.7,2.01,2.01,0,0,1-1.611-.7,2.5,2.5,0,0,1-.6-1.675,2.693,2.693,0,0,1,.607-1.718,1.939,1.939,0,0,1,1.6-.764A2.141,2.141,0,0,1,374.074,124.324Zm7.169-28.159a15.428,15.428,0,0,0,1.912,5.284h-1.617c-.345-.249-.733-.527-1.161-.85s-.838-.625-1.226-.921-.859-.65-1.426-1.065c-.169.157-.613.579-1.324,1.263s-1.287,1.2-1.731,1.574h-1.454a16.418,16.418,0,0,0,3.92-5.321l-.055.037Z" transform="translate(23.727 3.841)" fill="#fff"/>
      <path id="Path_1185" data-name="Path 1185" d="M375.809,114.727v.462c.206,0,.36-.154.459-.462q.716-1.543,2.2-4.7a45.97,45.97,0,0,1,3.129-5.669,17.151,17.151,0,0,1,3.735-4.148,7.153,7.153,0,0,1,4.5-1.641,3.155,3.155,0,0,1,2.47.868,3.326,3.326,0,0,1,.773,2.3,5.518,5.518,0,0,1-.148,1.306l-3.591,8.45a4.75,4.75,0,0,0-.44,1.8q0,1.677,1.879,1.675a5.325,5.325,0,0,0,1.555-.246,9.3,9.3,0,0,0,1.46-.591c.444-.228.952-.517,1.527-.875s1.016-.619,1.309-.791l.333.462a17.41,17.41,0,0,1-4.342,2.454,12.373,12.373,0,0,1-4.438.859,6.042,6.042,0,0,1-3.828-1.161,3.643,3.643,0,0,1-1.491-3.021,5.456,5.456,0,0,1,.459-2.113l3.917-9.719.225-.385a1.328,1.328,0,0,0-.721.108,23.316,23.316,0,0,0-4.838,5.716q-2.1,3.414-4.77,8.693a5.407,5.407,0,0,1-.742,1.152,1.978,1.978,0,0,1-.9.564,4.747,4.747,0,0,1-1.336.166,4.058,4.058,0,0,1-2.879-.912,3.148,3.148,0,0,1-.967-2.4,6.217,6.217,0,0,1,.425-2.119l3.994-10.581,7.049-1.327Z" transform="translate(40.244 8.911)" fill="#fff"/>
      <path id="Path_1186" data-name="Path 1186" d="M397.189,95.967l-3.421,9.663h3.421l-1.306,1.768h-2.611L389.7,117.61a2.216,2.216,0,0,0-.459,1.327,1.605,1.605,0,0,0,.48,1.179,1.743,1.743,0,0,0,1.287.477,7.721,7.721,0,0,0,3.11-.754,35.212,35.212,0,0,0,3.572-1.86l.333.462a18.53,18.53,0,0,1-4.715,2.448,14.958,14.958,0,0,1-4.9.862,6.567,6.567,0,0,1-3.791-1.019,3.281,3.281,0,0,1-1.487-2.864,5.305,5.305,0,0,1,.311-1.657l3.163-8.924h-2.482l1.195-1.771h1.9l2.852-8.114Z" transform="translate(66.92 3.506)" fill="#fff"/>
      <path id="Path_1187" data-name="Path 1187" d="M406.046,116.816a5.029,5.029,0,0,0-.422,1.675q0,1.418,1.749,1.42a8.609,8.609,0,0,0,2.768-.647,13.925,13.925,0,0,0,3.141-1.62l.385.462a16.768,16.768,0,0,1-4.253,2.411,12.928,12.928,0,0,1-4.841,1.047,5.64,5.64,0,0,1-4.823-2.137,13.449,13.449,0,0,1-6.79,1.952,5.928,5.928,0,0,1-3.671-1.059,3.94,3.94,0,0,1-1.407-3.375,10.341,10.341,0,0,1,.505-2.935,17.107,17.107,0,0,1,1.417-3.35,16.485,16.485,0,0,1,2.069-2.99,10.987,10.987,0,0,1,2.285-1.962,14.466,14.466,0,0,1,3.107-1.583,9.222,9.222,0,0,1,3.169-.619A4.558,4.558,0,0,1,404,105.018l6.9-1.269Zm-4.638-12.278q-2.226,0-4.416,4.9a48.761,48.761,0,0,0-1.851,4.915,13.3,13.3,0,0,0-.745,3.424c0,1.377.551,2.06,1.657,2.06a7.6,7.6,0,0,0,3.421-1.232l-.219-.958a8.651,8.651,0,0,1,.607-2.245l3.7-9.663A2.933,2.933,0,0,0,401.408,104.538Zm5.355-8.373a15.427,15.427,0,0,0,1.912,5.284h-1.617c-.342-.249-.73-.527-1.161-.85s-.834-.625-1.222-.921-.862-.65-1.426-1.065c-.172.157-.613.579-1.327,1.263s-1.287,1.2-1.728,1.574h-1.454a16.449,16.449,0,0,0,3.917-5.321l-.052.037Z" transform="translate(76.802 3.841)" fill="#fff"/>
      <path id="Path_1188" data-name="Path 1188" d="M401.293,114.837a1.452,1.452,0,0,0-.074.462c0,.194.025.3.074.3.025,0,.1-.1.219-.3q.116-.222,1.915-4.1a66.874,66.874,0,0,1,3.36-6.442,17.95,17.95,0,0,1,3.6-4.314,6.669,6.669,0,0,1,4.434-1.761,3.354,3.354,0,0,1,2.534.912,3.236,3.236,0,0,1,.875,2.328,5.007,5.007,0,0,1-.314,1.623l-4.527,11.3a.589.589,0,0,0-.185.425c0,.172.077.256.237.256s.308-.148.443-.44l2.263-4.875a44.02,44.02,0,0,1,2.818-5.371,18.728,18.728,0,0,1,3.782-4.444,7.13,7.13,0,0,1,4.7-1.875,3.839,3.839,0,0,1,1.737.388,2.874,2.874,0,0,1,1.207,1.066,2.831,2.831,0,0,1,.425,1.527,3.27,3.27,0,0,1-.277,1.324l-3.68,9.5a3.469,3.469,0,0,0-.129,1.087c0,1.081.517,1.62,1.546,1.62a7.384,7.384,0,0,0,3.129-.893,23.134,23.134,0,0,0,2.944-1.666l.348.573a19.6,19.6,0,0,1-3.033,1.838,15.546,15.546,0,0,1-3.018,1.1,12.457,12.457,0,0,1-3,.379,6.006,6.006,0,0,1-3.782-1.133,3.581,3.581,0,0,1-1.463-2.972,5.7,5.7,0,0,1,.5-2.189l4.034-9.719v-.385a.309.309,0,0,0-.012-.077c-.006-.025-.04-.037-.1-.037l-.333.114a33.96,33.96,0,0,0-2.8,3.172q-1.321,1.7-2.439,3.452t-1.746,2.9q-.637,1.15-2.568,4.647a8.555,8.555,0,0,1-.847,1.518,1.647,1.647,0,0,1-.819.564,5.916,5.916,0,0,1-1.537.148,3.471,3.471,0,0,1-2.762-1.022,3.9,3.9,0,0,1-.884-2.642,8.162,8.162,0,0,1,.44-2.482l3.923-9.867a1.006,1.006,0,0,1,.028-.2.322.322,0,0,1,.083-.182l-.111-.114c-.148,0-.388.166-.718.5A32.348,32.348,0,0,0,409,103.453a40.13,40.13,0,0,0-2.383,3.434q-1.039,1.7-2.042,3.591c-.671,1.266-1.333,2.593-2,3.991a3.051,3.051,0,0,1-1.019,1.457,2.977,2.977,0,0,1-1.7.425,4.191,4.191,0,0,1-3.018-1,3.392,3.392,0,0,1-1.05-2.568,6.007,6.007,0,0,1,.536-2.337l3.64-10.1,7.126-1.546Z" transform="translate(93.244 8.8)" fill="#fff"/>
      <path id="Path_1189" data-name="Path 1189" d="M423.8,99.956l-4.749,12.811a6.435,6.435,0,0,0-.388,1.989,1.5,1.5,0,0,0,1.694,1.709,4.005,4.005,0,0,0,2.688-1.161,11.849,11.849,0,0,0,2.106-2.457q.818-1.293,2-3.394a17.492,17.492,0,0,1-1.537-3.24,9.734,9.734,0,0,1-.508-3.184,5.562,5.562,0,0,1,1-3.471,3.213,3.213,0,0,1,2.695-1.315,3.317,3.317,0,0,1,2.8,1.346,5.977,5.977,0,0,1,1.01,3.68q0,3.127-2.648,7.6a8.874,8.874,0,0,0,4.6,1.438,5.944,5.944,0,0,0,1.361-.148v1.213l-.939.108a6.974,6.974,0,0,1-2.713-.588,11.085,11.085,0,0,1-2.642-1.564,23.3,23.3,0,0,1-3.461,3.387,12.235,12.235,0,0,1-3.779,1.977,15.037,15.037,0,0,1-4.632.674,6.154,6.154,0,0,1-3.828-1.059,3.417,3.417,0,0,1-1.383-2.861,6.358,6.358,0,0,1,.573-2.448l3.421-9.663Zm4.9,2.371a5.561,5.561,0,0,0-.354-2.171c-.231-.539-.554-.807-.973-.807-.354,0-.638.314-.847.945a8.07,8.07,0,0,0-.311,2.476,13.932,13.932,0,0,0,.256,2.744,23.151,23.151,0,0,0,.9,3.11A17.162,17.162,0,0,0,428.7,102.327Z" transform="translate(128.107 8.241)" fill="#fff"/>
      <path id="Path_1190" data-name="Path 1190" d="M426.591,116.794a6.733,6.733,0,0,0-.259,1.694,1.546,1.546,0,0,0,.379,1.1,1.736,1.736,0,0,0,1.315.406,4.837,4.837,0,0,0,1.9-.406,14.631,14.631,0,0,0,2.26-1.26c.872-.573,1.42-.924,1.638-1.059l.388.462a16.139,16.139,0,0,1-2.67,1.838,11.935,11.935,0,0,1-2.815,1.115,12.572,12.572,0,0,1-3.073.36,8.846,8.846,0,0,1-4.034-.893,2.8,2.8,0,0,1-1.765-2.568,4.092,4.092,0,0,1,.443-1.731l4.028-11.1,7.126-1.546ZM429.664,97.8a8.959,8.959,0,0,0,.579,1.287,19.138,19.138,0,0,0,1.059,1.675h-1.878a31.5,31.5,0,0,1-5.392-4.508h5.207A13.456,13.456,0,0,0,429.664,97.8Z" transform="translate(143.283 4.103)" fill="#fff"/>
      <path id="Path_1191" data-name="Path 1191" d="M446.692,113.369a21.91,21.91,0,0,1-2.615,1.666,13.283,13.283,0,0,1-2.741,1.121,10.264,10.264,0,0,1-2.762.376,11.16,11.16,0,0,1-4.253-.9l-1.195.33c-.539.148-.989.253-1.343.323a5.542,5.542,0,0,1-.976.1c-1.377,0-2.06-.887-2.06-2.667a1.18,1.18,0,0,1,.3-.838,14.929,14.929,0,0,1,1.463-1.2q1.6-1.418,3.424-3.314a11.909,11.909,0,0,1-.33-2.833,8.357,8.357,0,0,1,1.469-5,5.121,5.121,0,0,1,4.456-2.054q2.06,0,2.063,1.86a6.282,6.282,0,0,1-.662,2.513,10.129,10.129,0,0,1-1.29,2.2,10.208,10.208,0,0,1,1.195,4.641,4.454,4.454,0,0,1-.357,1.783,4.951,4.951,0,0,1-1.05,1.527,7.377,7.377,0,0,1-1.74,1.275,12.649,12.649,0,0,1-2.538.992,11.963,11.963,0,0,0,3.163.406,11.4,11.4,0,0,0,4.006-.73,15.063,15.063,0,0,0,3.874-2.18Zm-11.65-.684a10.513,10.513,0,0,0-.868-3.387,19.615,19.615,0,0,1-1.839,1.743c-.822.7-1.429,1.241-1.823,1.608l3.661,2.263A3,3,0,0,0,435.043,112.686Zm5.685-11.668a3.088,3.088,0,0,0-.145-.967,1.613,1.613,0,0,0-.434-.708.9.9,0,0,0-.616-.259c-.687,0-1.029.493-1.029,1.472a6.6,6.6,0,0,0,.126,1.244c.086.447.188.881.3,1.3s.24.825.363,1.232A6.324,6.324,0,0,0,440.727,101.018Z" transform="translate(161.78 8.726)" fill="#fff"/>
      <path id="Path_1192" data-name="Path 1192" d="M453.284,115.284a7.988,7.988,0,0,0-.551,2.448q0,1.474,1.546,1.472,2,0,6.054-2.725l.351.573A21.017,21.017,0,0,1,458,118.662a20.182,20.182,0,0,1-3.23,1.287,11.437,11.437,0,0,1-3.323.524,5.11,5.11,0,0,1-4.672-2.337,17.881,17.881,0,0,1-3.683,1.675,12.282,12.282,0,0,1-3.7.554,7.005,7.005,0,0,1-2.685-.487,4.2,4.2,0,0,1-1.832-1.4,3.447,3.447,0,0,1-.653-2.076,4.885,4.885,0,0,1,.462-2.082l3.772-10.088,7.123-1.432-4.641,12.586a6.221,6.221,0,0,0-.567,2.377,1.282,1.282,0,0,0,1.432,1.469q1.621,0,4.749-1.82V116.7a9.33,9.33,0,0,1,.443-2.245l3.809-10.1,7.289-1.435-1.253,3.2q2.379-1.751,2.377-3.35a1.655,1.655,0,0,0-.36-1.152,1.2,1.2,0,0,0-.93-.394h-.366l-.259-.462,3.92-1.838a4.2,4.2,0,0,1,1.087,2.667,4.611,4.611,0,0,1-1.1,2.882,9.775,9.775,0,0,1-2.568,2.291,6.413,6.413,0,0,1-2.448,1.01v-.037Zm2.153-18.7a18.634,18.634,0,0,1-1.546,1.457q-.809.679-2.079,1.666c-.847.656-1.413,1.1-1.694,1.33H448.24a11.722,11.722,0,0,0,1.38-2.233,10.946,10.946,0,0,0,.665-2.22h5.152Z" transform="translate(173.151 4.785)" fill="#fff"/>
      <path id="Path_1193" data-name="Path 1193" d="M461.081,113.147a19.155,19.155,0,0,1-3.249,1.838,16.625,16.625,0,0,1-3.5,1.115,18.881,18.881,0,0,1-3.726.357,15.967,15.967,0,0,1-5.679-.939,3.5,3.5,0,0,1-2.476-3.532,11.141,11.141,0,0,1,1.143-4.776,16.01,16.01,0,0,1,3.046-4.373,15.679,15.679,0,0,1,4.308-3.138,10.732,10.732,0,0,1,4.773-1.186,3.513,3.513,0,0,1,2.836,1.112,4.21,4.21,0,0,1,.939,2.809,7.758,7.758,0,0,1-.708,3.12,7.279,7.279,0,0,1-1.906,2.639,3.888,3.888,0,0,1-2.593,1.032,1.8,1.8,0,0,1-1.364-.533,1.721,1.721,0,0,1-.517-1.232,2.649,2.649,0,0,1,.754-1.86,12.209,12.209,0,0,1,2.183-1.749,18.2,18.2,0,0,0,2.146-1.6,1.978,1.978,0,0,0,.714-1.475,1.075,1.075,0,0,0-.357-.847,1.339,1.339,0,0,0-.912-.314,4.33,4.33,0,0,0-3.046,1.447,13.176,13.176,0,0,0-2.522,3.578,24.434,24.434,0,0,0-1.685,4.425,15,15,0,0,0-.628,3.748,2.6,2.6,0,0,0,.785,2.023,3.094,3.094,0,0,0,2.18.721,11.3,11.3,0,0,0,2.587-.3,16.167,16.167,0,0,0,2.6-.856q1.33-.559,3.542-1.721Z" transform="translate(190.279 8.8)" fill="#fff"/>
      <path id="Path_1194" data-name="Path 1194" d="M458.506,122.709l-.129.61c0,.074.04.111.129.111.111,0,.317-.259.625-.782s.631-1.118.976-1.8.607-1.2.791-1.583.416-.853.7-1.417q.623-1.289,1.666-3.424a25.112,25.112,0,0,1,2.254-3.8,10.329,10.329,0,0,1,2.824-2.688,6.618,6.618,0,0,1,3.618-1.022,4.891,4.891,0,0,1,3.009.85,2.654,2.654,0,0,1,1.133,2.242,4.893,4.893,0,0,1-1.546,3.418,11.665,11.665,0,0,1-4.225,2.658,19.7,19.7,0,0,1-5.882,1.269v.111a16.523,16.523,0,0,1,3.138.24,5.816,5.816,0,0,1,2.134.9,16.193,16.193,0,0,1,2.35,2.1,4.554,4.554,0,0,0,3.092,1.586,6.417,6.417,0,0,0,3.314-1.364l.385.61a12.782,12.782,0,0,1-8.007,3.055,7.414,7.414,0,0,1-3.236-.7,8.157,8.157,0,0,1-2.725-2.18,16.728,16.728,0,0,1-2.319-3.748c-.062.123-.32.714-.782,1.771a22.74,22.74,0,0,1-1.281,2.568,5.682,5.682,0,0,1-1.453,1.635,3.221,3.221,0,0,1-1.986.656,4.008,4.008,0,0,1-2.966-1.106,3.679,3.679,0,0,1-1.1-2.707,5.542,5.542,0,0,1,.514-2.226l7.951-22.6,7.012-1.4Zm7.887-7.563a12.41,12.41,0,0,0,2.495-2.667,4.613,4.613,0,0,0,.921-2.47c0-.733-.314-1.1-.939-1.1-.394,0-.918.36-1.577,1.078a18.172,18.172,0,0,0-2.122,3.027,42.129,42.129,0,0,0-2.153,4.234A15.109,15.109,0,0,0,466.393,115.146Z" transform="translate(212.218 0.559)" fill="#fff"/>
      <path id="Path_1195" data-name="Path 1195" d="M466.548,123.192l-.111.348.111.259a.893.893,0,0,1,.129-.188.7.7,0,0,1,.24-.182c.021-.062.216-.456.579-1.179s.684-1.4.967-2.023q1.192-2.374,2.362-4.379a32.129,32.129,0,0,1,2.855-4.077,17.025,17.025,0,0,1,3.652-3.406,7.053,7.053,0,0,1,3.994-1.333,3.253,3.253,0,0,1,2.387.754,2.757,2.757,0,0,1,.742,2.023,7.427,7.427,0,0,1-.533,2.578l-3.092,7.455a11.241,11.241,0,0,0-.459,2.3q0,1.4,1.509,1.4a5.7,5.7,0,0,0,1.684-.259,8.685,8.685,0,0,0,1.469-.588c.425-.222,1.016-.557,1.771-1.013s1.173-.705,1.26-.754l.388.61a15.3,15.3,0,0,1-8.835,3.273,6.843,6.843,0,0,1-3.951-1.041,3.15,3.15,0,0,1-1.518-2.713,5.191,5.191,0,0,1,.185-1.3q.185-.707.536-1.8l3.7-9.054a.668.668,0,0,0,.129-.237.724.724,0,0,1,.089-.206l-.219-.163c-.212,0-1.121.884-2.744,2.651a83.316,83.316,0,0,0-8.081,12.127,3.211,3.211,0,0,1-2.981,1.931,3.76,3.76,0,0,1-1.857-.487,3.922,3.922,0,0,1-1.429-1.34,3.507,3.507,0,0,1-.542-1.906,3.9,3.9,0,0,1,.443-1.768l8.632-23.558,7.231-1.4Z" transform="translate(228.71 0.559)" fill="#fff"/>
      <path id="Path_1196" data-name="Path 1196" d="M493.3,117.5a8.355,8.355,0,0,1-3.424.721,9.163,9.163,0,0,1-3.258-.607,13.97,13.97,0,0,1-4.425,5.1,10.55,10.55,0,0,1-5.9,1.638,8.214,8.214,0,0,1-5.081-1.3,4.639,4.639,0,0,1-1.657-3.9,12.287,12.287,0,0,1,1.574-5.676,15.117,15.117,0,0,1,4.16-5.016,8.719,8.719,0,0,1,5.417-2.008c.3,0,.443.114.443.333q0,.023-.93,1.638t-1.949,3.726a34.161,34.161,0,0,0-1.8,4.539,14.642,14.642,0,0,0-.773,4.382,2.544,2.544,0,0,0,.5,1.657,1.616,1.616,0,0,0,1.306.607q3.243,0,6.036-7.052a9.726,9.726,0,0,1-2.5-6.4,6.093,6.093,0,0,1,.921-3.557,2.952,2.952,0,0,1,2.556-1.3,3.516,3.516,0,0,1,2.143.668,4.243,4.243,0,0,1,1.4,1.934,8.2,8.2,0,0,1,.487,2.972,12.358,12.358,0,0,1-1.657,6.294,6.741,6.741,0,0,0,2.781.607,9.528,9.528,0,0,0,3.4-.714ZM478.739,98.119a2.79,2.79,0,0,1,1.444-2.411,5.734,5.734,0,0,1,3.193-.936,4.512,4.512,0,0,1,1.589.274,2.563,2.563,0,0,1,1.18.847,2.309,2.309,0,0,1,.434,1.438,1.577,1.577,0,0,1-.684,1.389,19.682,19.682,0,0,1-2.18,1.213c-1,.5-1.5.872-1.5,1.13,0,.48.191.721.57.721a1.729,1.729,0,0,0,.939-.425v.754c0,.111-.2.253-.607.425a2.8,2.8,0,0,1-1.087.256c-.736,0-1.21-.163-1.426-.487a2.437,2.437,0,0,1-.32-1.355,1.9,1.9,0,0,1,.514-1.321,6.994,6.994,0,0,1,1.453-1.17,12.773,12.773,0,0,0,1.407-1,1.159,1.159,0,0,0,.471-.884.751.751,0,0,0-.323-.551,1.084,1.084,0,0,0-.727-.277,3.289,3.289,0,0,0-2.091.736,2.529,2.529,0,0,0-1.038,1.712l-.259-.074Zm5.777,11.982q0-4.033-1.216-4.031c-.366,0-.674.253-.927.764a4.515,4.515,0,0,0-.379,2,11.066,11.066,0,0,0,.564,3.3,11.792,11.792,0,0,0,1.352,2.993A24.374,24.374,0,0,0,484.516,110.1Z" transform="translate(246.633 1.021)" fill="#fff"/>
      <path id="Path_1197" data-name="Path 1197" d="M495.667,113.184a21.817,21.817,0,0,1-5.494,2.528,22.57,22.57,0,0,1-6.156.745,13.039,13.039,0,0,1-5.044-.862,3.332,3.332,0,0,1-2.045-3.391,14.348,14.348,0,0,1,.878-4.9,15.021,15.021,0,0,1,2.51-4.434,12.321,12.321,0,0,1,3.837-3.156,10.046,10.046,0,0,1,4.721-1.152q4.2,0,4.2,3.092a6.864,6.864,0,0,1-2.476,4.859,19.707,19.707,0,0,1-6.8,4.034,8.2,8.2,0,0,0-.111,1.358q0,3.538,3.314,3.538,3.534,0,8.339-2.873Zm-9.66-5.488a33.352,33.352,0,0,0,2.143-2.578,19.61,19.61,0,0,0,1.728-2.722,5.2,5.2,0,0,0,.711-2.285,1.133,1.133,0,0,0-.277-.8.922.922,0,0,0-.718-.3q-1.09,0-2.239,1.989a26.944,26.944,0,0,0-2.032,4.471q-.882,2.485-1.305,4.139A19.514,19.514,0,0,0,486.006,107.7Z" transform="translate(261.97 8.911)" fill="#fff"/>
      <path id="Path_1198" data-name="Path 1198" d="M492.629,114.727v.462c.206,0,.36-.154.459-.462q.716-1.543,2.2-4.7a45.573,45.573,0,0,1,3.132-5.669,17.026,17.026,0,0,1,3.735-4.148,7.145,7.145,0,0,1,4.5-1.641,3.15,3.15,0,0,1,2.47.868,3.326,3.326,0,0,1,.773,2.3,5.37,5.37,0,0,1-.148,1.306l-3.591,8.45a4.808,4.808,0,0,0-.44,1.8q0,1.677,1.879,1.675a5.326,5.326,0,0,0,1.555-.246,9.469,9.469,0,0,0,1.463-.591c.44-.228.948-.517,1.527-.875s1.013-.619,1.309-.791l.329.462a17.4,17.4,0,0,1-4.342,2.454,12.372,12.372,0,0,1-4.437.859,6.049,6.049,0,0,1-3.828-1.161,3.644,3.644,0,0,1-1.49-3.021,5.512,5.512,0,0,1,.459-2.113l3.92-9.719.222-.385c-.407,0-.644.034-.718.108a23.26,23.26,0,0,0-4.841,5.716q-2.1,3.414-4.77,8.693a5.41,5.41,0,0,1-.742,1.152,1.979,1.979,0,0,1-.9.564,4.724,4.724,0,0,1-1.333.166,4.067,4.067,0,0,1-2.882-.912,3.146,3.146,0,0,1-.964-2.4,6.286,6.286,0,0,1,.422-2.119l3.994-10.581,7.049-1.327Z" transform="translate(283.176 8.911)" fill="#fff"/>
      <path id="Path_1199" data-name="Path 1199" d="M512.26,116.424a34.034,34.034,0,0,0,8.669-4.034l.332.721q-1.381.919-2.667,1.638c-.862.477-1.8.942-2.809,1.4s-2.319.973-3.911,1.564a12.11,12.11,0,0,1-2.291,3.375,10.543,10.543,0,0,1-3.277,2.328,9.308,9.308,0,0,1-3.929.85,4.372,4.372,0,0,1-2.522-.653,2.006,2.006,0,0,1-.939-1.725,3.235,3.235,0,0,1,1.657-2.741,11.62,11.62,0,0,1,4.785-1.546l.717-2.448a10.454,10.454,0,0,1-4.967,1.124,7.211,7.211,0,0,1-4.006-1.032,3.521,3.521,0,0,1-1.592-3.184,12.765,12.765,0,0,1,.93-4.638,16.147,16.147,0,0,1,2.624-4.444,13.564,13.564,0,0,1,3.911-3.28,9.489,9.489,0,0,1,4.647-1.223,7.157,7.157,0,0,1,2.494.388,6.5,6.5,0,0,1,2.036,1.269l6.405-1.158Zm-10.941,3.4a2.873,2.873,0,0,0-1.426,2.282,1.1,1.1,0,0,0,.4.878,1.5,1.5,0,0,0,.995.339q2.356,0,3.683-4.9A8.508,8.508,0,0,0,501.319,119.827Zm7.742-20.522a2.878,2.878,0,0,0-1.989.828,9.359,9.359,0,0,0-1.839,2.75,50.568,50.568,0,0,0-2.137,5.364c-.53,1.534-.881,2.645-1.056,3.326a7.361,7.361,0,0,0-.268,1.9q0,1.862,1.546,1.86a4.062,4.062,0,0,0,1.777-.468,6.543,6.543,0,0,0,1.555-1.041l4.505-13.088A2.211,2.211,0,0,0,509.061,99.305Z" transform="translate(300.613 8.726)" fill="#fff"/>
      <path id="Path_1200" data-name="Path 1200" d="M522.589,113.7a7.9,7.9,0,0,0-.551,2.448q0,1.474,1.546,1.472c1.333,0,3.357-.908,6.054-2.725l.351.573a21.043,21.043,0,0,1-2.689,1.611,20.184,20.184,0,0,1-3.23,1.287,11.437,11.437,0,0,1-3.323.524,5.119,5.119,0,0,1-4.675-2.337,17.859,17.859,0,0,1-3.68,1.675,12.3,12.3,0,0,1-3.7.554,7,7,0,0,1-2.685-.487,4.2,4.2,0,0,1-1.832-1.4,3.427,3.427,0,0,1-.653-2.076,4.887,4.887,0,0,1,.462-2.082l3.769-10.088,7.126-1.432-4.641,12.586a6.233,6.233,0,0,0-.57,2.377,1.284,1.284,0,0,0,1.435,1.469q1.621,0,4.748-1.82v-.718a9.331,9.331,0,0,1,.444-2.245l3.809-10.1,7.289-1.435-1.253,3.2q2.379-1.751,2.374-3.35a1.67,1.67,0,0,0-.357-1.152,1.21,1.21,0,0,0-.933-.394h-.366l-.259-.462,3.923-1.838a4.2,4.2,0,0,1,1.084,2.667,4.607,4.607,0,0,1-1.093,2.882,9.777,9.777,0,0,1-2.568,2.291,6.432,6.432,0,0,1-2.448,1.01v-.037Z" transform="translate(317.27 6.365)" fill="#fff"/>
      <path id="Path_1201" data-name="Path 1201" d="M533.089,103.129a1.666,1.666,0,0,0-.357-1.149,1.2,1.2,0,0,0-.93-.4h-.369l-.274-.459,3.92-1.842a4.029,4.029,0,0,1,1.1,2.707,4.585,4.585,0,0,1-1.01,2.8,9.135,9.135,0,0,1-2.337,2.2,4.362,4.362,0,0,1-1.968.856,13.852,13.852,0,0,1-.206,2.319,13.618,13.618,0,0,1-.576,2.254,11.211,11.211,0,0,1-.875,1.9,6.73,6.73,0,0,0,2.778.607,9.529,9.529,0,0,0,3.4-.714l.225.714a8.379,8.379,0,0,1-3.427.721,9.147,9.147,0,0,1-3.255-.607,13.974,13.974,0,0,1-4.428,5.1,10.544,10.544,0,0,1-5.9,1.638,8.213,8.213,0,0,1-5.081-1.3,4.637,4.637,0,0,1-1.654-3.9,12.289,12.289,0,0,1,1.574-5.676,15.1,15.1,0,0,1,4.157-5.016,8.733,8.733,0,0,1,5.42-2.008c.3,0,.44.114.44.333q0,.023-.927,1.638t-1.949,3.726a33.726,33.726,0,0,0-1.8,4.539,14.548,14.548,0,0,0-.773,4.382,2.561,2.561,0,0,0,.5,1.657,1.617,1.617,0,0,0,1.309.607q3.238,0,6.036-7.052a9.73,9.73,0,0,1-2.5-6.4,6.093,6.093,0,0,1,.921-3.557,2.956,2.956,0,0,1,2.556-1.3,3.5,3.5,0,0,1,2.587,1.066,5.123,5.123,0,0,1,1.337,2.962h-.037Q533.092,104.71,533.089,103.129Zm-6.405-4.939a19.536,19.536,0,0,0,1.383,2.328h-1.879a33.362,33.362,0,0,1-5.392-4.508h5.211A11.408,11.408,0,0,0,526.683,98.189Zm.148,9.34q0-4.033-1.213-4.031c-.367,0-.678.253-.93.764a4.561,4.561,0,0,0-.376,2,11.055,11.055,0,0,0,.56,3.3,11.9,11.9,0,0,0,1.352,2.993A24.164,24.164,0,0,0,526.831,107.529Z" transform="translate(334.633 3.593)" fill="#fff"/>
      <path id="Path_1202" data-name="Path 1202" d="M526.037,117.256a6.743,6.743,0,0,0-.258,1.694,1.546,1.546,0,0,0,.379,1.1,1.74,1.74,0,0,0,1.315.406,4.837,4.837,0,0,0,1.9-.406,14.632,14.632,0,0,0,2.26-1.26c.874-.573,1.42-.924,1.641-1.059l.388.462a16.279,16.279,0,0,1-2.673,1.838,11.88,11.88,0,0,1-2.815,1.115,12.571,12.571,0,0,1-3.073.36,8.833,8.833,0,0,1-4.031-.893,2.8,2.8,0,0,1-1.768-2.568,4.09,4.09,0,0,1,.443-1.731l4.031-11.1,7.123-1.546Zm4.795-20.522a2.532,2.532,0,0,1,.6,1.709,2.558,2.558,0,0,1-.616,1.731,2.154,2.154,0,0,1-1.722.718,2.029,2.029,0,0,1-1.629-.7,2.5,2.5,0,0,1-.6-1.675,2.685,2.685,0,0,1,.607-1.74,1.985,1.985,0,0,1,1.62-.745A2.157,2.157,0,0,1,530.832,96.734Z" transform="translate(350.08 3.641)" fill="#fff"/>
      <path id="Path_1203" data-name="Path 1203" d="M532.827,119.469a11.548,11.548,0,0,1-3.2-3.735,9.891,9.891,0,0,1-.976-4.474,12.615,12.615,0,0,1,2.494-7.874,17.836,17.836,0,0,1,6.526-5.238,33.768,33.768,0,0,1,8.539-2.809,47.483,47.483,0,0,1,8.706-.844c.2-.012.385-.022.57-.028s.459-.012.832-.012q2.813,0,2.815.831a1.488,1.488,0,0,1-.514.865,29.164,29.164,0,0,0-3.6,4.967,57.722,57.722,0,0,0-3.388,6.673,52.7,52.7,0,0,0-2.448,6.818,20.8,20.8,0,0,0-.893,5.321,5.462,5.462,0,0,0,.942,3.452,3.236,3.236,0,0,0,2.7,1.183,7.584,7.584,0,0,0,5.457-2.5,21.249,21.249,0,0,0,4.222-6.331,42.036,42.036,0,0,0,2.645-7.723,29.89,29.89,0,0,0,.912-6.633,6.543,6.543,0,0,0-.166-1.5q-.166-.693-.517-1.786t-.5-1.758a5.561,5.561,0,0,1-.148-1.25c0-.135.172-.268.514-.4a4.037,4.037,0,0,1,1.38-.191,5.988,5.988,0,0,1,3.27.871,5.507,5.507,0,0,1,2.085,2.522,9.567,9.567,0,0,1,.721,3.874,22.857,22.857,0,0,1-1.592,8.1,27.94,27.94,0,0,1-4.407,7.7,22.958,22.958,0,0,1-6.5,5.586,15.353,15.353,0,0,1-7.711,2.1,11.835,11.835,0,0,1-5.226-1.124,8.585,8.585,0,0,1-3.6-3.12,8.18,8.18,0,0,1-1.278-4.5,13.776,13.776,0,0,1,1.453-6.073,25.576,25.576,0,0,1,3.831-5.716,39.6,39.6,0,0,1,5.115-4.909,48.539,48.539,0,0,1,5.651-3.9c.259-.077.385-.2.385-.366,0-.148-.126-.225-.385-.225a34.513,34.513,0,0,0-9.95,1.447,33.444,33.444,0,0,0-4.792,1.811,29.983,29.983,0,0,0-4.293,2.47,25.5,25.5,0,0,0-3.815,3.4,20.466,20.466,0,0,0-3.132,4.342,9.509,9.509,0,0,0-1.222,4.456,6.913,6.913,0,0,0,3.055,5.632Z" transform="translate(369.521 0.36)" fill="#fff"/>
      <path id="Path_1204" data-name="Path 1204" d="M548.766,117.256a6.874,6.874,0,0,0-.259,1.694,1.534,1.534,0,0,0,.382,1.1,1.732,1.732,0,0,0,1.312.406,4.838,4.838,0,0,0,1.9-.406,14.5,14.5,0,0,0,2.263-1.26c.872-.573,1.42-.924,1.638-1.059l.388.462a16.135,16.135,0,0,1-2.67,1.838,11.987,11.987,0,0,1-2.815,1.115,12.606,12.606,0,0,1-3.073.36,8.846,8.846,0,0,1-4.034-.893,2.793,2.793,0,0,1-1.765-2.568,4.129,4.129,0,0,1,.44-1.731l4.031-11.1,7.126-1.546Zm4.795-20.522a2.532,2.532,0,0,1,.6,1.709,2.557,2.557,0,0,1-.616,1.731,2.147,2.147,0,0,1-1.718.718,2.031,2.031,0,0,1-1.632-.7,2.5,2.5,0,0,1-.6-1.675,2.685,2.685,0,0,1,.607-1.74,1.991,1.991,0,0,1,1.623-.745A2.152,2.152,0,0,1,553.561,96.734Z" transform="translate(397.351 3.641)" fill="#fff"/>
      <path id="Path_1205" data-name="Path 1205" d="M565.318,118.254a21.862,21.862,0,0,1-5.494,2.528,22.6,22.6,0,0,1-6.156.745,13.018,13.018,0,0,1-5.044-.862,3.328,3.328,0,0,1-2.045-3.391,14.42,14.42,0,0,1,.875-4.9,15.026,15.026,0,0,1,2.51-4.434,12.355,12.355,0,0,1,3.837-3.156,10.059,10.059,0,0,1,4.724-1.152q4.2,0,4.2,3.092a6.864,6.864,0,0,1-2.476,4.859,19.68,19.68,0,0,1-6.8,4.034,8.533,8.533,0,0,0-.111,1.358c0,2.359,1.109,3.538,3.314,3.538q3.533,0,8.339-2.873Zm-12.361,6.07a2.631,2.631,0,0,1,.6,1.734,2.548,2.548,0,0,1-.6,1.709,2.155,2.155,0,0,1-1.737.7,2.028,2.028,0,0,1-1.632-.7,2.483,2.483,0,0,1-.6-1.675,2.675,2.675,0,0,1,.607-1.718,1.964,1.964,0,0,1,1.623-.764A2.134,2.134,0,0,1,552.957,124.324Zm7.169-28.159a15.427,15.427,0,0,0,1.912,5.284h-1.617c-.505-.357-1.127-.819-1.869-1.392s-1.392-1.05-1.94-1.444q-.259.236-1.327,1.263c-.714.677-1.287,1.2-1.731,1.574h-1.472A16.309,16.309,0,0,0,556,96.128l-.034.037Zm-4.471,16.6a32.687,32.687,0,0,0,2.143-2.578,19.659,19.659,0,0,0,1.731-2.722,5.23,5.23,0,0,0,.708-2.285,1.133,1.133,0,0,0-.277-.8.918.918,0,0,0-.718-.3q-1.085,0-2.235,1.989a27.153,27.153,0,0,0-2.036,4.471q-.883,2.485-1.3,4.139A19.823,19.823,0,0,0,555.654,112.766Z" transform="translate(406.808 3.841)" fill="#fff"/>
      <path id="Path_1206" data-name="Path 1206" d="M566.408,95.967l-3.424,9.663h3.424L565.1,107.4h-2.614l-3.572,10.212a2.216,2.216,0,0,0-.459,1.327,1.605,1.605,0,0,0,.48,1.179,1.744,1.744,0,0,0,1.287.477,7.72,7.72,0,0,0,3.11-.754,35.22,35.22,0,0,0,3.572-1.86l.33.462a18.463,18.463,0,0,1-4.712,2.448,14.957,14.957,0,0,1-4.9.862,6.567,6.567,0,0,1-3.791-1.019,3.276,3.276,0,0,1-1.491-2.864,5.319,5.319,0,0,1,.314-1.657l3.163-8.924h-2.482l1.195-1.771h1.9l2.851-8.114Z" transform="translate(418.803 3.506)" fill="#fff"/>
    </g>
  </g>
</svg>
